<svg xmlns="http://www.w3.org/2000/svg" viewBox="0 0 400 160" fill="none">
  <!-- Letter e -->
  <path d="M10 72c0-33.1 26.9-60 60-60s60 26.9 60 60v8H46c4 20 22 34 44 34 14 0 26-5 35-14l18 18c-14 14-33 22-53 22-38.6 0-70-26.9-70-60zm36-8h48c-4-18-20-30-38-30s-34 12-38 30z" fill="#2D2D2D"/>
  <!-- Letter v (checkmark) -->
  <path d="M148 16l52 80 52-80h-28l-24 40-24-40z" fill="#2D2D2D"/>
  <path d="M166 56l34 56 62-96h-28l-34 56-20-32z" fill="#34A853"/>
  <!-- Letter c -->
  <path d="M340 72c0-33.1-26.9-60-60-60-33.1 0-60 26.9-60 60s26.9 60 60 60c20 0 39-8 53-22l-18-18c-9 9-21 14-35 14-22 0-40-14-44-34h108v-8c0-1 0-2 0-4h-4zm-104-8c4-18 20-30 38-30s34 12 38 30h-76z" fill="#2D2D2D"/>
  <!-- Text: ELECTRIC VEHICLES CLINIC -->
  <text x="200" y="150" text-anchor="middle" font-family="Arial, Helvetica, sans-serif" font-weight="700" font-size="22" letter-spacing="6" fill="#2D2D2D">ELECTRIC VEHICLES CLINIC</text>
</svg>
